<svg viewBox="0 0 220 260" width="220" height="260" xmlns="http://www.w3.org/2000/svg">
  <defs>
    <linearGradient id="feePot" x1="0" y1="0" x2="0" y2="1">
      <stop offset="0" stop-color="#C97B4A"/><stop offset="1" stop-color="#9C5730"/>
    </linearGradient>
    <linearGradient id="feeTige" x1="0" y1="1" x2="0" y2="0">
      <stop offset="0" stop-color="#2E7D3B"/><stop offset="1" stop-color="#8DC63F"/>
    </linearGradient>
  </defs>

  <!-- POT -->
  <path d="M56 168 L164 168 L152 246 Q 110 254 68 246 Z" fill="url(#feePot)"/>
  <rect x="48" y="150" width="124" height="24" rx="7" fill="#D98A57"/>
  <ellipse cx="110" cy="172" rx="52" ry="9" fill="#5C3A21"/>

  <!-- Les 11 états. `data-p` = pourcentage à partir duquel l'état s'affiche. -->
  <g class="fee-stage" data-p="0"></g>

  <g class="fee-stage" data-p="10">
    <ellipse cx="110" cy="166" rx="8" ry="6" fill="#B07A46"/>
  </g>

  <g class="fee-stage" data-p="20">
    <ellipse cx="110" cy="164" rx="8.5" ry="6.5" fill="#C08A50"/>
    <path d="M104 162 L110 166 L116 161" stroke="#6E4523" stroke-width="1.6" fill="none"/>
  </g>

  <g class="fee-stage" data-p="30">
    <ellipse cx="110" cy="164" rx="8.5" ry="6.5" fill="#C08A50"/>
    <path d="M110 160 Q 109 150 112 144" stroke="#8DC63F" stroke-width="4" stroke-linecap="round" fill="none"/>
  </g>

  <g class="fee-stage" data-p="40">
    <path d="M110 168 Q 108 148 111 130" stroke="url(#feeTige)" stroke-width="5" stroke-linecap="round" fill="none"/>
    <path d="M111 132 Q 98 122 96 134 Q 104 140 111 132 Z" fill="#8DC63F"/>
  </g>

  <g class="fee-stage" data-p="50">
    <path d="M110 168 Q 108 142 111 118" stroke="url(#feeTige)" stroke-width="5.5" stroke-linecap="round" fill="none"/>
    <path d="M111 122 Q 92 110 88 126 Q 100 136 111 122 Z" fill="#8DC63F"/>
    <path d="M111 128 Q 130 116 134 132 Q 122 142 111 128 Z" fill="#A9D454"/>
  </g>

  <g class="fee-stage" data-p="60">
    <path d="M110 168 Q 107 134 111 104" stroke="url(#feeTige)" stroke-width="6" stroke-linecap="round" fill="none"/>
    <path d="M110 110 Q 86 96 80 116 Q 96 128 110 110 Z" fill="#8DC63F"/>
    <path d="M111 118 Q 136 104 142 124 Q 125 136 111 118 Z" fill="#A9D454"/>
    <path d="M109 140 Q 90 132 88 146 Q 100 152 109 140 Z" fill="#2E7D3B"/>
  </g>

  <g class="fee-stage" data-p="70">
    <path d="M110 168 Q 106 128 111 92" stroke="url(#feeTige)" stroke-width="6.5" stroke-linecap="round" fill="none"/>
    <path d="M110 98 Q 82 82 76 104 Q 94 118 110 98 Z" fill="#8DC63F"/>
    <path d="M111 108 Q 140 92 146 114 Q 127 128 111 108 Z" fill="#A9D454"/>
    <path d="M109 134 Q 84 124 82 142 Q 98 150 109 134 Z" fill="#2E7D3B"/>
    <path d="M112 142 Q 137 132 139 150 Q 123 158 112 142 Z" fill="#2E7D3B"/>
  </g>

  <g class="fee-stage" data-p="80">
    <path d="M110 168 Q 106 122 111 82" stroke="url(#feeTige)" stroke-width="7" stroke-linecap="round" fill="none"/>
    <path d="M110 96 Q 80 78 74 102 Q 93 118 110 96 Z" fill="#8DC63F"/>
    <path d="M111 106 Q 142 88 148 112 Q 128 128 111 106 Z" fill="#A9D454"/>
    <path d="M109 134 Q 82 122 80 142 Q 97 151 109 134 Z" fill="#2E7D3B"/>
    <path d="M112 142 Q 139 130 141 150 Q 124 159 112 142 Z" fill="#2E7D3B"/>
    <ellipse cx="111" cy="74" rx="11" ry="14" fill="#7FB539"/>
    <path d="M111 60 Q 104 68 106 78" stroke="#5E9430" stroke-width="2" fill="none"/>
  </g>

  <g class="fee-stage" data-p="90">
    <path d="M110 168 Q 106 120 111 78" stroke="url(#feeTige)" stroke-width="7" stroke-linecap="round" fill="none"/>
    <path d="M110 96 Q 80 78 74 102 Q 93 118 110 96 Z" fill="#8DC63F"/>
    <path d="M111 106 Q 142 88 148 112 Q 128 128 111 106 Z" fill="#A9D454"/>
    <path d="M109 134 Q 82 122 80 142 Q 97 151 109 134 Z" fill="#2E7D3B"/>
    <path d="M112 142 Q 139 130 141 150 Q 124 159 112 142 Z" fill="#2E7D3B"/>
    <g transform="translate(111,68)">
      <ellipse cx="-13" cy="0" rx="10" ry="7" fill="#F2A9C4"/>
      <ellipse cx="13" cy="0" rx="10" ry="7" fill="#F2A9C4"/>
      <ellipse cx="0" cy="-11" rx="7" ry="10" fill="#F6BDD2"/>
      <circle r="6" fill="#E8C46B"/>
    </g>
  </g>

  <!-- 100 % : la plante en pleine fleur -->
  <g class="fee-stage" data-p="100">
    <path d="M110 168 Q 106 118 111 74" stroke="url(#feeTige)" stroke-width="7.5" stroke-linecap="round" fill="none"/>
    <path d="M110 94 Q 78 74 72 100 Q 92 118 110 94 Z" fill="#8DC63F"/>
    <path d="M111 104 Q 144 84 150 110 Q 129 128 111 104 Z" fill="#A9D454"/>
    <path d="M109 132 Q 80 118 78 140 Q 96 151 109 132 Z" fill="#2E7D3B"/>
    <path d="M112 140 Q 141 126 143 148 Q 125 159 112 140 Z" fill="#2E7D3B"/>
    <g class="fee-fleur" transform="translate(111,60)">
      <ellipse cx="-17" cy="0" rx="13" ry="9" fill="#F2A9C4"/>
      <ellipse cx="17" cy="0" rx="13" ry="9" fill="#F2A9C4"/>
      <ellipse cx="0" cy="-16" rx="9" ry="13" fill="#F6BDD2"/>
      <ellipse cx="0" cy="16" rx="9" ry="13" fill="#F6BDD2"/>
      <ellipse cx="-12" cy="-12" rx="9" ry="9" fill="#F5B6CD" transform="rotate(-45)"/>
      <circle r="9" fill="#E8C46B"/>
      <circle r="4" fill="#D0A03F"/>
    </g>
    <circle cx="150" cy="60" r="3.5" fill="#B5D95A"/>
    <circle cx="70" cy="76" r="3" fill="#B5D95A"/>
  </g>
</svg>
