<svg xmlns="http://www.w3.org/2000/svg" viewBox="0 0 1000 760" role="img" aria-label="Famipyro logo">
  <defs>
    <filter id="softShadow" x="-20%" y="-20%" width="140%" height="140%">
      <feDropShadow dx="0" dy="5" stdDeviation="4" flood-color="#0f2f1e" flood-opacity="0.28"/>
    </filter>
    <linearGradient id="leafLight" x1="0" y1="0" x2="1" y2="1">
      <stop offset="0%" stop-color="#98d128"/>
      <stop offset="100%" stop-color="#80bf20"/>
    </linearGradient>
    <linearGradient id="rocketDark" x1="0" y1="0" x2="0" y2="1">
      <stop offset="0%" stop-color="#1c6a41"/>
      <stop offset="100%" stop-color="#174d31"/>
    </linearGradient>
    <linearGradient id="rocketStripe" x1="0" y1="0" x2="0" y2="1">
      <stop offset="0%" stop-color="#9ad433"/>
      <stop offset="100%" stop-color="#70b61f"/>
    </linearGradient>
  </defs>

  <rect width="1000" height="760" fill="transparent"/>

  <g transform="translate(500 290)">
    <path d="M-300 40c-70 170-20 304 118 355-12-116 18-198 90-300-75-58-132-82-208-93z" fill="url(#leafLight)"/>
    <path d="M300 40c70 170 20 304-118 355 12-116-18-198-90-300 75-58 132-82 208-93z" fill="url(#leafLight)"/>
    <path d="M-210 145c-44 108-16 201 55 258-4-83 18-154 74-236-50-19-92-23-129-22z" fill="#88c724"/>
    <path d="M210 145c44 108 16 201-55 258 4-83-18-154-74-236 50-19 92-23 129-22z" fill="#88c724"/>

    <path d="M-45 44c-38-135-88-213-123-239 46-6 82 10 110 48 22 31 29 63 13 95z" fill="url(#rocketDark)"/>
    <path d="M45 44c38-135 88-213 123-239-46-6-82 10-110 48-22 31-29 63-13 95z" fill="url(#rocketDark)"/>

    <path d="M-30 20l-44 245h45l34-245z" fill="#1a5636"/>
    <path d="M30 20l44 245H29L-4 20z" fill="#1a5636"/>

    <path d="M-40 55l-34 184h28l33-184z" fill="url(#rocketStripe)"/>
    <path d="M-32 92l-39 16 2 20 33-15z" fill="#245d37"/>
    <path d="M-39 138l-37 15 2 21 32-15z" fill="#245d37"/>
    <path d="M-46 184l-35 15 2 21 30-15z" fill="#245d37"/>

    <path d="M40 55l34 184H46L13 55z" fill="url(#rocketStripe)"/>
    <path d="M32 92l39 16-2 20-33-15z" fill="#245d37"/>
    <path d="M39 138l37 15-2 21-32-15z" fill="#245d37"/>
    <path d="M46 184l35 15-2 21-30-15z" fill="#245d37"/>

    <g fill="#177147">
      <path d="M-92-150c29-11 54-4 72 19-28 14-51 8-72-19z"/>
      <path d="M-34-167c12 28 7 52-17 72-18-22-12-47 17-72z"/>
      <path d="M18-141c32-12 57-5 76 19-28 15-53 10-76-19z"/>
      <path d="M71-161c13 29 9 54-16 74-19-23-15-48 16-74z"/>
      <path d="M-150-215c20-7 37-2 50 15-19 8-36 3-50-15z"/>
      <path d="M150-215c-20-7-37-2-50 15 19 8 36 3 50-15z"/>
    </g>

    <g fill="#0d6a43" opacity="0.95">
      <path d="M-240-190c16-6 30-2 41 11-16 8-30 4-41-11z"/>
      <path d="M-205-232c14-5 27-2 36 10-14 7-27 4-36-10z"/>
      <path d="M-268-146c15-6 27-1 36 12-15 7-27 3-36-12z"/>
      <path d="M240-190c-16-6-30-2-41 11 16 8 30 4 41-11z"/>
      <path d="M205-232c-14-5-27-2-36 10 14 7 27 4 36-10z"/>
      <path d="M268-146c-15-6-27-1-36 12 15 7 27 3 36-12z"/>
      <path d="M182-270c-18-8-33-4-44 11 17 8 31 5 44-11z"/>
      <path d="M-182-270c18-8 33-4 44 11-17 8-31 5-44-11z"/>
    </g>
  </g>

  <g filter="url(#softShadow)">
    <text x="500" y="595" text-anchor="middle" font-family="Georgia, 'Times New Roman', serif" font-size="152" font-weight="700" fill="#1b4c31" stroke="#ffffff" stroke-width="10">famipyro</text>
  </g>
</svg>
